<svg width="85" height="83" viewBox="0 0 85 83" fill="none" xmlns="http://www.w3.org/2000/svg">
<path d="M77.8728 5.65881H7.1272V51.254H77.8728V5.65881Z" fill="black"/>
<path d="M77.8593 5.65881H42.4662V51.254H77.8593V5.65881Z" fill="black"/>
<path d="M71.38 11.4259H13.62V45.4869H71.38V11.4259Z" fill="white"/>
<path d="M7.1272 51.2404L0 62.9099H85L77.8728 51.2404H7.1272Z" fill="#9747FF"/>
<path d="M85 62.9099H0V69.1237H85V62.9099Z" fill="black"/>
<path d="M62.1876 0H22.745V45.4733H62.1876V0Z" fill="#9747FF"/>
<path d="M85 62.9099H42.4662V69.1237H85V62.9099Z" fill="black"/>
<path d="M62.1875 0H42.4662V45.4733H62.1875V0Z" fill="#9747FF"/>
<path d="M58.003 5.84827H26.8215V18.7091H58.003V5.84827Z" fill="black"/>
<path d="M58.003 22.0125H26.8215V34.8733H58.003V22.0125Z" fill="black"/>
<path d="M58.003 38.1765H26.8215V45.4734H58.003V38.1765Z" fill="black"/>
<path d="M54.9794 8.63708H39.2941V9.96379H54.9794V8.63708Z" fill="white"/>
<path d="M54.9794 11.6154H39.2941V12.9421H54.9794V11.6154Z" fill="white"/>
<path d="M54.9794 14.6073H39.2941V15.934H54.9794V14.6073Z" fill="white"/>
<path d="M54.9794 24.7471H39.2941V26.0738H54.9794V24.7471Z" fill="white"/>
<path d="M54.9794 27.7389H39.2941V29.0656H54.9794V27.7389Z" fill="white"/>
<path d="M54.9794 30.7172H39.2941V32.0439H54.9794V30.7172Z" fill="white"/>
<path d="M54.9794 40.8705H39.2941V42.1972H54.9794V40.8705Z" fill="white"/>
<path d="M36.7699 8.63708H29.4942V15.9339H36.7699V8.63708Z" fill="white"/>
<path d="M36.7699 24.8011H29.4942V32.098H36.7699V24.8011Z" fill="white"/>
<path d="M36.7699 40.9652H29.4942V45.4327H36.7699V40.9652Z" fill="white"/>
<path d="M11.3927 76.3124C11.1767 76.3124 10.9473 76.2311 10.7718 76.0822C10.3803 75.7438 10.3263 75.1346 10.6773 74.742L20.5177 63.3703C20.8552 62.9777 21.4626 62.9235 21.854 63.2755C22.2455 63.614 22.2995 64.2232 21.9485 64.6157L12.1081 75.9875C11.9192 76.2041 11.6627 76.3124 11.3927 76.3124Z" fill="#9747FF"/>
<path d="M5.3184 82.3773C4.25202 81.4432 4.14403 79.8322 5.06193 78.7628L12.0271 70.5318C12.9585 69.4623 14.5649 69.3405 15.6312 70.2746C16.6976 71.2087 16.8191 72.8197 15.8877 73.8892L8.9225 82.1201C7.9911 83.1896 6.38478 83.3115 5.3184 82.3773Z" fill="black"/>
<path d="M37.8093 44.8371C31.8834 39.6792 22.9069 40.3155 17.764 46.2585C12.6211 52.2016 13.2555 61.2042 19.1813 66.3621C25.1072 71.52 34.0837 70.8837 39.2266 64.9407C44.3695 58.9976 43.7351 49.995 37.8093 44.8371ZM22.448 62.5851C18.6009 59.2413 18.1825 53.3929 21.5301 49.5347C24.8642 45.6764 30.6956 45.2703 34.5426 48.6141C38.3897 51.9579 38.8082 57.8063 35.4605 61.6645C32.1264 65.5228 26.2951 65.9424 22.448 62.5851Z" fill="black"/>
</svg>
