<svg width="88" height="87" viewBox="0 0 88 87" fill="none" xmlns="http://www.w3.org/2000/svg">
<g clip-path="url(#clip0_190_4411)">
<path d="M52.7766 0H0V71.2057H52.7766V0Z" fill="black"/>
<path d="M44.337 8.21826H13.0403V10.5538H44.337V8.21826Z" fill="#9747FF"/>
<path d="M44.337 13.6339H13.0403V15.9695H44.337V13.6339Z" fill="#9747FF"/>
<path d="M44.337 19.0494H13.0403V21.385H44.337V19.0494Z" fill="#9747FF"/>
<path d="M44.337 24.4506H13.0403V26.7861H44.337V24.4506Z" fill="#9747FF"/>
<path d="M44.337 29.8661H13.0403V32.2017H44.337V29.8661Z" fill="#9747FF"/>
<path d="M44.337 35.2817H13.0403V37.6173H44.337V35.2817Z" fill="#9747FF"/>
<path d="M44.337 40.6827H13.0403V43.0183H44.337V40.6827Z" fill="#9747FF"/>
<path d="M44.337 46.0983H13.0403V48.4338H44.337V46.0983Z" fill="#9747FF"/>
<path d="M44.337 51.5139H13.0403V53.8495H44.337V51.5139Z" fill="#9747FF"/>
<path d="M59.2527 31.793C74.5494 31.793 86.9597 44.1569 86.9597 59.3965C86.9597 74.6361 74.5494 87 59.2527 87V31.793Z" fill="black"/>
<path d="M59.2527 87C43.956 87 31.5458 74.6361 31.5458 59.3965C31.5458 44.1569 43.956 31.793 59.2527 31.793V87Z" fill="black"/>
<path d="M59.2527 37.88C71.1795 37.88 80.8498 47.5142 80.8498 59.3964C80.8498 71.2787 71.1795 80.9129 59.2527 80.9129V37.88Z" fill="white"/>
<path d="M59.2528 80.9129C47.326 80.9129 37.6557 71.2787 37.6557 59.3964C37.6557 47.5142 47.326 37.88 59.2528 37.88V80.9129Z" fill="white"/>
<path d="M59.2527 42.9453C68.3663 42.9453 75.7656 50.317 75.7656 59.3965C75.7656 68.476 68.381 75.8477 59.2527 75.8477V42.9453Z" fill="black"/>
<path d="M59.2527 75.8477C50.1392 75.8477 42.7399 68.476 42.7399 59.3965C42.7399 50.317 50.1245 42.9453 59.2527 42.9453V75.8477Z" fill="black"/>
<path d="M59.2527 47.6019C65.7875 47.6019 71.0916 52.8861 71.0916 59.3965C71.0916 65.9069 65.7875 71.1911 59.2527 71.1911V47.5873V47.6019Z" fill="white"/>
<path d="M59.2527 71.2057C52.718 71.2057 47.4139 65.9215 47.4139 59.4111C47.4139 52.9007 52.718 47.6165 59.2527 47.6165V71.2203V71.2057Z" fill="white"/>
<path d="M59.2527 52.1124C63.2967 52.1124 66.5641 55.3676 66.5641 59.3965C66.5641 63.4253 63.2967 66.6805 59.2527 66.6805V52.1124Z" fill="#9747FF"/>
<path d="M59.2527 66.6805C55.2088 66.6805 51.9414 63.4253 51.9414 59.3965C51.9414 55.3676 55.2088 52.1124 59.2527 52.1124V66.6805Z" fill="#9747FF"/>
<path d="M9.94872 9.38605C9.94872 10.3787 9.14286 11.1815 8.14652 11.1815C7.15018 11.1815 6.34432 10.3787 6.34432 9.38605C6.34432 8.39343 7.15018 7.59058 8.14652 7.59058C9.14286 7.59058 9.94872 8.39343 9.94872 9.38605Z" fill="white"/>
<path d="M9.94872 14.8017C9.94872 15.7943 9.14286 16.5972 8.14652 16.5972C7.15018 16.5972 6.34432 15.7943 6.34432 14.8017C6.34432 13.8091 7.15018 13.0062 8.14652 13.0062C9.14286 13.0062 9.94872 13.8091 9.94872 14.8017Z" fill="white"/>
<path d="M9.94872 20.2172C9.94872 21.2098 9.14286 22.0127 8.14652 22.0127C7.15018 22.0127 6.34432 21.2098 6.34432 20.2172C6.34432 19.2246 7.15018 18.4218 8.14652 18.4218C9.14286 18.4218 9.94872 19.2246 9.94872 20.2172Z" fill="white"/>
<path d="M9.94872 25.6183C9.94872 26.611 9.14286 27.4138 8.14652 27.4138C7.15018 27.4138 6.34432 26.611 6.34432 25.6183C6.34432 24.6257 7.15018 23.8229 8.14652 23.8229C9.14286 23.8229 9.94872 24.6257 9.94872 25.6183Z" fill="white"/>
<path d="M9.94872 31.0339C9.94872 32.0265 9.14286 32.8293 8.14652 32.8293C7.15018 32.8293 6.34432 32.0265 6.34432 31.0339C6.34432 30.0413 7.15018 29.2384 8.14652 29.2384C9.14286 29.2384 9.94872 30.0413 9.94872 31.0339Z" fill="white"/>
<path d="M9.94872 36.4495C9.94872 37.4421 9.14286 38.245 8.14652 38.245C7.15018 38.245 6.34432 37.4421 6.34432 36.4495C6.34432 35.4569 7.15018 34.6541 8.14652 34.6541C9.14286 34.6541 9.94872 35.4569 9.94872 36.4495Z" fill="white"/>
<path d="M9.94872 41.8505C9.94872 42.8431 9.14286 43.646 8.14652 43.646C7.15018 43.646 6.34432 42.8431 6.34432 41.8505C6.34432 40.8579 7.15018 40.0551 8.14652 40.0551C9.14286 40.0551 9.94872 40.8579 9.94872 41.8505Z" fill="white"/>
<path d="M9.94872 47.2661C9.94872 48.2587 9.14286 49.0615 8.14652 49.0615C7.15018 49.0615 6.34432 48.2587 6.34432 47.2661C6.34432 46.2734 7.15018 45.4706 8.14652 45.4706C9.14286 45.4706 9.94872 46.2734 9.94872 47.2661Z" fill="white"/>
<path d="M9.94872 52.6817C9.94872 53.6743 9.14286 54.4772 8.14652 54.4772C7.15018 54.4772 6.34432 53.6743 6.34432 52.6817C6.34432 51.6891 7.15018 50.8862 8.14652 50.8862C9.14286 50.8862 9.94872 51.6891 9.94872 52.6817Z" fill="white"/>
<path d="M67.3407 51.9372C67.1795 51.9372 67.0037 51.8788 66.8865 51.7475C66.6374 51.4993 66.6374 51.0906 66.8865 50.8424L86.5055 31.3404C86.7546 31.0923 87.1648 31.0923 87.4139 31.3404C87.663 31.5886 87.663 31.9973 87.4139 32.2454L67.7949 51.7475C67.663 51.8788 67.5018 51.9372 67.3407 51.9372Z" fill="black"/>
<path d="M71.7949 52.1415L59.2527 59.338L66.5055 46.8573L71.7949 52.1415Z" fill="black"/>
<path d="M87.3553 34.9752H84.4689C84.1172 34.9752 83.8242 34.6833 83.8242 34.3329V31.501C83.8242 31.1507 84.1172 30.8588 84.4689 30.8588C84.8205 30.8588 85.1136 31.1507 85.1136 31.501V33.6906H87.3553C87.707 33.6906 88 33.9826 88 34.3329C88 34.6833 87.707 34.9752 87.3553 34.9752Z" fill="black"/>
<path d="M85.7729 36.5516H82.8864C82.5348 36.5516 82.2418 36.2597 82.2418 35.9093V33.0775C82.2418 32.7271 82.5348 32.4352 82.8864 32.4352C83.2381 32.4352 83.5311 32.7271 83.5311 33.0775V35.2671H85.7729C86.1245 35.2671 86.4176 35.559 86.4176 35.9093C86.4176 36.2597 86.1245 36.5516 85.7729 36.5516Z" fill="black"/>
</g>
<defs>
<clipPath id="clip0_190_4411">
<rect width="88" height="87" fill="white"/>
</clipPath>
</defs>
</svg>
