<svg width="166" height="42" viewBox="0 0 166 42" fill="none" xmlns="http://www.w3.org/2000/svg">
<g clip-path="url(#clip0_186_34)">
<path d="M18.6019 0.533737L0.140572 33.3984C-0.258266 34.1092 0.240998 34.9999 1.03867 34.9999H16.5675V30.2809H7.1934L19.5 8.37017L31.8066 30.2809H22.4296V34.9999H37.9584C38.7589 34.9999 39.2582 34.1092 38.8565 33.3984L20.4009 0.533737C20.0021 -0.177058 19.0007 -0.177058 18.6019 0.533737Z" fill="black"/>
<path d="M19.5 8.37027L10.0914 25.1197H28.9085L19.5 8.37027ZM19.5 8.48235L25.9158 19.9081H13.0841L19.5 8.48235Z" fill="black"/>
<path d="M13.0842 19.9052L19.5 8.48236L25.9187 19.9052H13.0842Z" fill="black"/>
<path d="M19.5 20.9434C21.7566 20.9434 23.5859 19.063 23.5859 16.7435C23.5859 14.424 21.7566 12.5436 19.5 12.5436C17.2434 12.5436 15.4141 14.424 15.4141 16.7435C15.4141 19.063 17.2434 20.9434 19.5 20.9434Z" fill="white"/>
<path d="M7.19342 30.281L10.0943 25.1197H28.9085L31.8066 30.281H22.4325V35H16.5675V30.281H7.19342Z" fill="#9747FF"/>
</g>
<path d="M68.2801 29H64.8481L63.5281 25.136H57.4561L56.1361 29H52.7521L58.5361 13.16H62.4961L68.2801 29ZM58.2001 22.688H62.7841L60.4801 15.776L58.2001 22.688ZM73.2216 13.16V29H69.9096V13.16H73.2216ZM95.2711 13.16V15.824H89.9671V29H86.6551V15.824H81.3271V13.16H95.2711ZM95.3511 29V17H98.2071L98.4231 19.352C98.7431 18.52 99.2071 17.88 99.8151 17.432C100.439 16.984 101.215 16.76 102.143 16.76C102.415 16.76 102.663 16.784 102.887 16.832C103.111 16.88 103.295 16.944 103.439 17.024L103.055 19.784C102.895 19.72 102.695 19.672 102.455 19.64C102.231 19.608 101.935 19.592 101.567 19.592C101.087 19.592 100.623 19.712 100.175 19.952C99.7271 20.176 99.3591 20.528 99.0711 21.008C98.7831 21.472 98.6391 22.064 98.6391 22.784V29H95.3511ZM111.385 21.344C111.385 20.656 111.185 20.12 110.785 19.736C110.401 19.352 109.889 19.16 109.249 19.16C108.657 19.16 108.137 19.312 107.689 19.616C107.241 19.92 106.913 20.424 106.705 21.128L103.897 20.264C104.169 19.208 104.761 18.36 105.673 17.72C106.601 17.08 107.841 16.76 109.393 16.76C110.449 16.76 111.369 16.928 112.153 17.264C112.937 17.584 113.545 18.072 113.977 18.728C114.425 19.384 114.649 20.208 114.649 21.2V26.072C114.649 26.68 114.937 26.984 115.513 26.984C115.785 26.984 116.041 26.944 116.281 26.864L116.089 28.904C115.673 29.112 115.153 29.216 114.529 29.216C113.969 29.216 113.465 29.12 113.017 28.928C112.569 28.736 112.217 28.448 111.961 28.064C111.705 27.664 111.577 27.168 111.577 26.576V26.48L112.153 26.384C112.057 26.992 111.793 27.512 111.361 27.944C110.929 28.36 110.401 28.68 109.777 28.904C109.169 29.128 108.537 29.24 107.881 29.24C107.065 29.24 106.361 29.12 105.769 28.88C105.177 28.624 104.721 28.256 104.401 27.776C104.081 27.296 103.921 26.704 103.921 26C103.921 25.104 104.209 24.376 104.785 23.816C105.361 23.24 106.185 22.848 107.257 22.64L111.769 21.728L111.745 23.768L108.865 24.344C108.321 24.456 107.905 24.608 107.617 24.8C107.345 24.976 107.209 25.272 107.209 25.688C107.209 26.088 107.353 26.392 107.641 26.6C107.945 26.808 108.305 26.912 108.721 26.912C109.057 26.912 109.385 26.872 109.705 26.792C110.025 26.712 110.313 26.584 110.569 26.408C110.825 26.232 111.025 25.992 111.169 25.688C111.313 25.384 111.385 25.016 111.385 24.584V21.344ZM123.008 16.76C124.08 16.76 124.984 16.92 125.72 17.24C126.472 17.544 127.072 17.968 127.52 18.512C127.984 19.04 128.312 19.632 128.504 20.288L125.432 21.392C125.272 20.672 125 20.128 124.616 19.76C124.232 19.392 123.712 19.208 123.056 19.208C122.448 19.208 121.928 19.352 121.496 19.64C121.064 19.912 120.736 20.336 120.512 20.912C120.288 21.472 120.176 22.176 120.176 23.024C120.176 23.872 120.288 24.576 120.512 25.136C120.752 25.696 121.088 26.112 121.52 26.384C121.968 26.656 122.488 26.792 123.08 26.792C123.56 26.792 123.968 26.712 124.304 26.552C124.64 26.376 124.912 26.128 125.12 25.808C125.344 25.488 125.496 25.104 125.576 24.656L128.552 25.616C128.376 26.336 128.048 26.968 127.568 27.512C127.088 28.056 126.472 28.48 125.72 28.784C124.968 29.088 124.096 29.24 123.104 29.24C121.872 29.24 120.784 28.992 119.84 28.496C118.896 28 118.168 27.288 117.656 26.36C117.144 25.432 116.888 24.312 116.888 23C116.888 21.688 117.144 20.568 117.656 19.64C118.168 18.712 118.888 18 119.816 17.504C120.744 17.008 121.808 16.76 123.008 16.76ZM142.602 17L137.058 22.784L136.41 23.096L132.81 26.96L132.762 23.456L138.858 17H142.602ZM133.674 11.744V29H130.386V11.744H133.674ZM137.514 20.816L142.89 29H139.17L135.258 22.736L137.514 20.816ZM149.109 29.24C147.845 29.24 146.741 28.992 145.797 28.496C144.869 28 144.149 27.288 143.637 26.36C143.125 25.432 142.869 24.312 142.869 23C142.869 21.688 143.125 20.568 143.637 19.64C144.149 18.712 144.861 18 145.773 17.504C146.701 17.008 147.757 16.76 148.941 16.76C150.157 16.76 151.189 17.008 152.037 17.504C152.885 17.984 153.533 18.648 153.981 19.496C154.429 20.328 154.653 21.28 154.653 22.352C154.653 22.672 154.645 22.976 154.629 23.264C154.613 23.552 154.589 23.808 154.557 24.032H144.981V21.752H153.117L151.533 22.328C151.533 21.32 151.301 20.544 150.837 20C150.389 19.456 149.749 19.184 148.917 19.184C148.309 19.184 147.781 19.328 147.333 19.616C146.901 19.904 146.573 20.336 146.349 20.912C146.125 21.472 146.013 22.184 146.013 23.048C146.013 23.896 146.133 24.6 146.373 25.16C146.629 25.704 146.981 26.112 147.429 26.384C147.893 26.656 148.445 26.792 149.085 26.792C149.789 26.792 150.357 26.656 150.789 26.384C151.221 26.112 151.557 25.736 151.797 25.256L154.413 26.264C154.157 26.888 153.765 27.424 153.237 27.872C152.725 28.32 152.109 28.664 151.389 28.904C150.685 29.128 149.925 29.24 149.109 29.24ZM156.72 29V17H159.576L159.792 19.352C160.112 18.52 160.576 17.88 161.184 17.432C161.808 16.984 162.584 16.76 163.512 16.76C163.784 16.76 164.032 16.784 164.256 16.832C164.48 16.88 164.664 16.944 164.808 17.024L164.424 19.784C164.264 19.72 164.064 19.672 163.824 19.64C163.6 19.608 163.304 19.592 162.936 19.592C162.456 19.592 161.992 19.712 161.544 19.952C161.096 20.176 160.728 20.528 160.44 21.008C160.152 21.472 160.008 22.064 160.008 22.784V29H156.72Z" fill="black"/>
<defs>
<clipPath id="clip0_186_34">
<rect width="39" height="35" fill="white"/>
</clipPath>
</defs>
</svg>
