<svg width="18" height="18" viewBox="0 0 18 18" fill="none" xmlns="http://www.w3.org/2000/svg">
<g clip-path="url(#clip0_186_1036)">
<path d="M14.5098 3.69652C13.4293 3.20867 12.2706 2.84924 11.059 2.64338C11.037 2.63941 11.0149 2.64934 11.0036 2.66919C10.8545 2.92999 10.6895 3.27023 10.5739 3.53765C9.27081 3.34569 7.97442 3.34569 6.69807 3.53765C6.58246 3.26428 6.41139 2.92999 6.2617 2.66919C6.25034 2.65 6.2283 2.64007 6.20623 2.64338C4.99538 2.84858 3.83665 3.20801 2.75543 3.69652C2.74607 3.70049 2.73805 3.70712 2.73273 3.71572C0.534864 6.94664 -0.0672225 10.0981 0.228141 13.2106C0.229477 13.2258 0.238164 13.2404 0.250193 13.2496C1.70028 14.2975 3.10494 14.9336 4.48351 15.3552C4.50557 15.3619 4.52895 15.3539 4.54299 15.336C4.86909 14.8979 5.15978 14.4358 5.40902 13.9499C5.42373 13.9215 5.40969 13.8877 5.37963 13.8765C4.91854 13.7044 4.4795 13.4945 4.05717 13.2562C4.02376 13.237 4.02109 13.19 4.05182 13.1675C4.14069 13.102 4.22959 13.0338 4.31445 12.965C4.32981 12.9524 4.3512 12.9497 4.36925 12.9577C7.14378 14.2041 10.1475 14.2041 12.8893 12.9577C12.9074 12.9491 12.9288 12.9517 12.9448 12.9643C13.0297 13.0332 13.1186 13.102 13.2081 13.1675C13.2388 13.19 13.2368 13.237 13.2034 13.2562C12.7811 13.4992 12.342 13.7044 11.8803 13.8758C11.8502 13.8871 11.8369 13.9215 11.8516 13.9499C12.1062 14.4351 12.3968 14.8972 12.7169 15.3354C12.7303 15.3539 12.7543 15.3619 12.7764 15.3552C14.1617 14.9336 15.5663 14.2975 17.0164 13.2496C17.0291 13.2404 17.0371 13.2265 17.0385 13.2112C17.392 9.61292 16.4464 6.48726 14.5319 3.71638C14.5272 3.70712 14.5192 3.70049 14.5098 3.69652ZM5.82335 11.3154C4.98803 11.3154 4.29974 10.5608 4.29974 9.63411C4.29974 8.70739 4.97468 7.95279 5.82335 7.95279C6.67868 7.95279 7.36031 8.71401 7.34693 9.63411C7.34693 10.5608 6.672 11.3154 5.82335 11.3154ZM11.4566 11.3154C10.6213 11.3154 9.93304 10.5608 9.93304 9.63411C9.93304 8.70739 10.608 7.95279 11.4566 7.95279C12.312 7.95279 12.9936 8.71401 12.9802 9.63411C12.9802 10.5608 12.312 11.3154 11.4566 11.3154Z" fill="white"/>
</g>
<defs>
<clipPath id="clip0_186_1036">
<rect width="16.9534" height="16.9534" fill="white" transform="translate(0.158081 0.523315)"/>
</clipPath>
</defs>
</svg>
