<svg width="18" height="18" viewBox="0 0 18 18" fill="none" xmlns="http://www.w3.org/2000/svg">
<g clip-path="url(#clip0_224_4090)">
<path d="M14.5097 3.69658C13.4292 3.20873 12.2704 2.8493 11.0589 2.64344C11.0368 2.63947 11.0148 2.6494 11.0034 2.66926C10.8544 2.93005 10.6893 3.27029 10.5738 3.53771C9.27069 3.34575 7.9743 3.34575 6.69795 3.53771C6.58233 3.26434 6.41127 2.93005 6.26158 2.66926C6.25022 2.65006 6.22818 2.64013 6.20611 2.64344C4.99526 2.84864 3.83653 3.20807 2.75531 3.69658C2.74595 3.70056 2.73793 3.70718 2.7326 3.71578C0.534742 6.9467 -0.0673445 10.0982 0.228019 13.2106C0.229355 13.2259 0.238042 13.2404 0.250071 13.2497C1.70016 14.2975 3.10481 14.9336 4.48339 15.3553C4.50545 15.3619 4.52883 15.354 4.54287 15.3361C4.86897 14.8979 5.15966 14.4359 5.4089 13.95C5.42361 13.9215 5.40957 13.8878 5.3795 13.8765C4.91842 13.7044 4.47938 13.4946 4.05705 13.2563C4.02364 13.2371 4.02097 13.1901 4.0517 13.1676C4.14057 13.1021 4.22947 13.0339 4.31433 12.965C4.32968 12.9525 4.35108 12.9498 4.36913 12.9578C7.14366 14.2042 10.1474 14.2042 12.8892 12.9578C12.9073 12.9492 12.9287 12.9518 12.9447 12.9644C13.0296 13.0332 13.1184 13.1021 13.208 13.1676C13.2387 13.1901 13.2367 13.2371 13.2033 13.2563C12.781 13.4992 12.3419 13.7044 11.8802 13.8759C11.8501 13.8871 11.8367 13.9215 11.8514 13.95C12.106 14.4352 12.3967 14.8972 12.7168 15.3354C12.7302 15.354 12.7542 15.3619 12.7763 15.3553C14.1615 14.9336 15.5662 14.2975 17.0163 13.2497C17.029 13.2404 17.037 13.2265 17.0383 13.2113C17.3918 9.61298 16.4463 6.48732 14.5317 3.71644C14.5271 3.70718 14.5191 3.70056 14.5097 3.69658ZM5.82323 11.3155C4.9879 11.3155 4.29962 10.5609 4.29962 9.63417C4.29962 8.70745 4.97456 7.95285 5.82323 7.95285C6.67856 7.95285 7.36018 8.71407 7.34681 9.63417C7.34681 10.5609 6.67188 11.3155 5.82323 11.3155ZM11.4565 11.3155C10.6212 11.3155 9.93292 10.5609 9.93292 9.63417C9.93292 8.70745 10.6078 7.95285 11.4565 7.95285C12.3119 7.95285 12.9935 8.71407 12.9801 9.63417C12.9801 10.5609 12.3119 11.3155 11.4565 11.3155Z" fill="black"/>
</g>
<defs>
<clipPath id="clip0_224_4090">
<rect width="16.9534" height="16.9534" fill="white" transform="translate(0.157959 0.523438)"/>
</clipPath>
</defs>
</svg>
