<svg width="25" height="24" viewBox="0 0 25 24" fill="none" xmlns="http://www.w3.org/2000/svg">
<g clip-path="url(#clip0_274_5366)">
<path d="M20.8 15H22.5C23.3 15 24 14.3 24 13.5V10.5C24 9.7 23.3 9 22.5 9H20.8C20.6 9 20.4 8.9 20.4 8.7C20.4 8.6 20.3 8.5 20.3 8.4C20.2 8.2 20.3 8 20.4 7.9L21.6 6.7C21.8 6.4 22 6 22 5.6C22 5.2 21.8 4.8 21.6 4.6L19.4 2.4C19.1 2.1 18.7 2 18.4 2C18 2 17.6 2.2 17.4 2.4L16.2 3.6C16.1 3.7 15.9 3.8 15.7 3.7C15.6 3.7 15.5 3.6 15.4 3.6C15.1 3.5 15 3.4 15 3.2V1.5C15 0.7 14.3 0 13.5 0H10.5C9.7 0 9 0.7 9 1.5V3.2C9 3.4 8.9 3.6 8.7 3.6C8.6 3.6 8.5 3.7 8.4 3.7C8.2 3.8 8 3.8 7.9 3.6L6.7 2.4C6.4 2.2 6 2 5.6 2C5.2 2 4.8 2.2 4.6 2.4L2.4 4.6C2.2 4.9 2 5.2 2 5.6C2 6 2.2 6.4 2.4 6.6L3.6 7.8C3.8 8 3.8 8.2 3.7 8.4C3.7 8.5 3.6 8.6 3.6 8.7C3.5 8.9 3.4 9 3.2 9H1.5C0.7 9 0 9.7 0 10.5V13.5C0 14.3 0.7 15 1.5 15H3.2C3.4 15 3.6 15.1 3.6 15.3C3.6 15.4 3.7 15.5 3.7 15.6C3.8 15.8 3.7 16 3.6 16.1L2.4 17.3C2.2 17.6 2 18 2 18.4C2 18.8 2.2 19.2 2.4 19.4L4.6 21.6C4.9 21.9 5.3 22 5.6 22C6 22 6.4 21.8 6.6 21.6L7.8 20.4C7.9 20.3 8.1 20.2 8.3 20.3C8.4 20.3 8.5 20.4 8.6 20.4C8.9 20.5 9 20.6 9 20.8V22.5C9 23.3 9.7 24 10.5 24H13.5C14.3 24 15 23.3 15 22.5V20.8C15 20.6 15.1 20.4 15.3 20.3C15.8 20.1 16.3 19.8 16.8 19.5L20.8 23.5C21.1 23.8 21.5 23.9 21.9 23.9C22.3 23.9 22.7 23.8 23 23.5L23.6 22.9C24.2 22.3 24.2 21.4 23.6 20.8L19.6 16.8C19.9 16.3 20.2 15.8 20.4 15.3C20.4 15.1 20.6 15 20.8 15ZM22.9 22.3L22.3 22.9C22.1 23.1 21.8 23.1 21.6 22.9L17.5 18.8C17.3 18.6 17.3 18.3 17.5 18.1L18.1 17.5C18.2 17.4 18.3 17.4 18.5 17.4C18.7 17.4 18.8 17.4 18.9 17.5L23 21.6C23 21.8 23 22.1 22.9 22.3ZM19.4 15C19.2 15.5 18.9 16 18.6 16.4C18.2 16.3 17.7 16.4 17.4 16.7L16.6 15.9C17.5 14.9 18 13.5 18 12C18 8.7 15.3 6 12 6C8.7 6 6 8.7 6 12C6 15.3 8.7 18 12 18C13.5 18 14.8 17.5 15.9 16.6L16.7 17.4C16.4 17.8 16.3 18.2 16.4 18.6C16 18.9 15.5 19.2 15 19.4C14.4 19.6 14 20.2 14 20.8V22.5C14 22.8 13.8 23 13.5 23H10.5C10.2 23 10 22.8 10 22.5V20.8C10 20.2 9.6 19.7 9.1 19.4C9 19.4 8.9 19.3 8.8 19.3C8.3 19.1 7.6 19.2 7.2 19.6L6 20.9C5.9 20.9 5.8 21 5.6 21C5.5 21 5.4 21 5.3 20.9L3.1 18.7C3.1 18.6 3 18.5 3 18.4C3 18.3 3.1 18.2 3.1 18.1L4.3 16.9C4.7 16.5 4.9 15.8 4.6 15.3C4.6 15.2 4.5 15.1 4.5 15C4.3 14.4 3.8 14 3.2 14H1.5C1.2 14 1 13.8 1 13.5V10.5C1 10.2 1.2 10 1.5 10H3.2C3.8 10 4.3 9.6 4.6 9.1L4.7 8.8C4.9 8.3 4.8 7.6 4.4 7.2L3.1 6C3.1 5.9 3 5.8 3 5.6C3 5.5 3 5.4 3.1 5.3L5.3 3.1C5.4 3.1 5.5 3 5.6 3C5.8 3 5.9 3.1 6 3.1L7.2 4.3C7.6 4.7 8.3 4.9 8.8 4.6L9.1 4.5C9.6 4.3 10 3.8 10 3.2V1.5C10 1.2 10.2 1 10.5 1H13.5C13.8 1 14 1.2 14 1.5V3.2C14 3.8 14.4 4.3 14.9 4.6C15 4.6 15.1 4.7 15.2 4.7C15.7 4.9 16.4 4.8 16.8 4.4L18 3.1C18.1 3.1 18.2 3 18.4 3C18.5 3 18.6 3 18.7 3.1L20.9 5.3C20.9 5.4 21 5.5 21 5.6C21 5.7 21 5.8 20.9 5.9L19.7 7.1C19.3 7.5 19.1 8.2 19.4 8.7C19.4 8.8 19.5 8.9 19.5 9C19.7 9.6 20.3 9.9 20.9 9.9H22.6C22.9 9.9 23.1 10.1 23.1 10.4V13.4C23.1 13.7 22.9 13.9 22.6 13.9H20.9C20.2 14 19.7 14.4 19.4 15ZM12 17C9.2 17 7 14.8 7 12C7 9.2 9.2 7 12 7C14.8 7 17 9.2 17 12C17 14.8 14.8 17 12 17Z" fill="white"/>
</g>
<defs>
<clipPath id="clip0_274_5366">
<rect width="24.05" height="24" fill="white"/>
</clipPath>
</defs>
</svg>
