<svg width="18" height="18" viewBox="0 0 18 18" fill="none" xmlns="http://www.w3.org/2000/svg">
<g clip-path="url(#clip0_224_4091)">
<path fill-rule="evenodd" clip-rule="evenodd" d="M17.1904 9.00013C17.1904 13.6817 13.3953 17.4768 8.71375 17.4768C4.0322 17.4768 0.237061 13.6817 0.237061 9.00013C0.237061 4.31858 4.0322 0.523438 8.71375 0.523438C13.3953 0.523438 17.1904 4.31858 17.1904 9.00013ZM9.01752 6.7813C8.19303 7.12423 6.54523 7.83401 4.0741 8.91064C3.67283 9.07022 3.46262 9.22632 3.44349 9.37897C3.41115 9.63694 3.7342 9.73852 4.17411 9.87684C4.23395 9.89566 4.29595 9.91516 4.35951 9.93582C4.79232 10.0765 5.37452 10.2411 5.67718 10.2476C5.95172 10.2536 6.25814 10.1404 6.59644 9.90808C8.90529 8.34954 10.0971 7.56178 10.172 7.5448C10.2247 7.53282 10.2979 7.51775 10.3475 7.56181C10.397 7.60586 10.3922 7.68929 10.3869 7.71167C10.3549 7.8481 9.08681 9.02704 8.43057 9.63713C8.22599 9.82733 8.08088 9.96224 8.05121 9.99306C7.98476 10.0621 7.91703 10.1274 7.85194 10.1901C7.44985 10.5777 7.14833 10.8684 7.86863 11.3431C8.21479 11.5712 8.49178 11.7598 8.76811 11.948C9.0699 12.1535 9.3709 12.3585 9.76035 12.6138C9.85957 12.6788 9.95433 12.7464 10.0466 12.8122C10.3978 13.0626 10.7134 13.2875 11.1032 13.2516C11.3297 13.2308 11.5637 13.0178 11.6825 12.3826C11.9633 10.8813 12.5153 7.62864 12.6428 6.28827C12.654 6.17084 12.64 6.02055 12.6287 5.95458C12.6174 5.8886 12.5938 5.7946 12.508 5.72502C12.4065 5.64261 12.2497 5.62523 12.1796 5.62646C11.8607 5.63208 11.3716 5.80217 9.01752 6.7813Z" fill="black"/>
</g>
<defs>
<clipPath id="clip0_224_4091">
<rect width="16.9534" height="16.9534" fill="white" transform="translate(0.237061 0.523438)"/>
</clipPath>
</defs>
</svg>
