<svg width="194" height="29" viewBox="0 0 194 29" fill="none" xmlns="http://www.w3.org/2000/svg">
<g clip-path="url(#clip0_224_3348)">
<path d="M9.93576 29.0004H1.24245C0.555631 29.0004 0 28.444 0 27.7563V19.0478C0 18.3601 0.555631 17.8037 1.24245 17.8037H9.93576C10.6226 17.8037 11.1782 18.3601 11.1782 19.0478V27.7563C11.1782 28.444 10.6226 29.0004 9.93576 29.0004ZM3.10613 26.5122H8.07208C8.41549 26.5122 8.69331 26.234 8.69331 25.8902V20.9139C8.69331 20.57 8.41549 20.2957 8.07208 20.2957H3.10613C2.76272 20.2957 2.4849 20.5739 2.4849 20.9178V25.894C2.4849 26.2379 2.76272 26.5122 3.10613 26.5122Z" fill="#5E38B9"/>
<path d="M27.7159 11.1966H19.0226C18.3358 11.1966 17.7802 10.6403 17.7802 9.95257V1.24407C17.7802 0.556355 18.3358 0 19.0226 0H27.7159C28.4027 0 28.9584 0.556355 28.9584 1.24407V9.95257C28.9584 10.6403 28.4027 11.1966 27.7159 11.1966ZM20.8863 8.70464H25.8522C26.1956 8.70464 26.4735 8.42646 26.4735 8.0826V3.11018C26.4735 2.76632 26.1956 2.48814 25.8522 2.48814H20.8863C20.5429 2.48814 20.2651 2.76632 20.2651 3.11018V8.08646C20.2651 8.43032 20.5429 8.70464 20.8863 8.70464Z" fill="#5E38B9"/>
<path d="M27.7159 13.2559H3.10613C2.76272 13.2559 2.4849 12.9778 2.4849 12.6339V3.11018C2.4849 2.76632 2.76272 2.48814 3.10613 2.48814H12.6136C12.957 2.48814 13.2348 2.76632 13.2387 3.11018V10.5746C13.2387 10.9185 13.5165 11.1966 13.8599 11.1966H15.1024C15.4458 11.1966 15.7197 10.9185 15.7236 10.5746V1.24407C15.7236 0.556355 15.1679 0.00386358 14.4811 0H1.24245C0.555631 0 0 0.556355 0 1.24407V14.5C0 15.1877 0.555631 15.7441 1.24245 15.7441H25.8523C26.1957 15.7441 26.4735 16.0222 26.4735 16.3661V25.8898C26.4735 26.2337 26.1957 26.5119 25.8523 26.5119H16.3564C16.013 26.5119 15.7352 26.2337 15.7352 25.8898V18.4254C15.7352 18.0815 15.4573 17.8072 15.1139 17.8034H13.8599C13.5165 17.8034 13.2387 18.0815 13.2387 18.4254V27.7559C13.2387 28.4436 13.7943 29 14.4811 29H27.7159C28.4028 29 28.9584 28.4436 28.9584 27.7559V14.5C28.9584 13.8123 28.4028 13.2559 27.7159 13.2559Z" fill="#8C4BF6"/>
<path d="M43.3315 24.1589L38.2807 5.40121C38.1418 4.88736 38.4466 4.36191 38.9559 4.22282C39.0369 4.19964 39.1218 4.18805 39.2067 4.18805H40.9932C41.4485 4.18805 41.8421 4.51259 41.9308 4.96077L45.2029 19.9089H45.3688L49.046 4.89895C49.154 4.47009 49.536 4.16487 49.9798 4.16487H51.5888C52.0325 4.16487 52.4184 4.46623 52.5226 4.89895L56.1882 19.9089H56.3695L59.6223 4.92213C59.7149 4.47395 60.1085 4.14941 60.5638 4.14941H62.3464C62.8789 4.14941 63.3111 4.586 63.3072 5.11917C63.3072 5.20031 63.2956 5.28531 63.2763 5.36258L58.2255 24.1589C58.1136 24.58 57.7316 24.8698 57.2956 24.8698H55.6557C55.2197 24.8698 54.8377 24.5761 54.7258 24.155L50.8441 9.55456H50.6975L46.8389 24.1589C46.7309 24.58 46.3489 24.8736 45.9129 24.8736H44.2691C43.8293 24.8814 43.4434 24.5839 43.3315 24.1589Z" fill="#181823"/>
<path d="M74.4815 25.2713C69.1837 25.2713 65.8846 21.7941 65.8846 15.9408V13.1204C65.8846 7.24 69.1837 3.77051 74.4815 3.77051C79.7793 3.77051 83.059 7.24773 83.059 13.1204V15.9408C83.059 21.7864 79.7754 25.2713 74.4815 25.2713ZM74.4815 6.72614C71.5297 6.72614 69.3651 8.83179 69.3651 13.1049V15.9717C69.3651 20.2564 71.5297 22.362 74.4815 22.362C77.4333 22.362 79.5786 20.2564 79.5786 15.9717V13.1049C79.5786 8.81634 77.3985 6.71069 74.4815 6.71069V6.72614Z" fill="#181823"/>
<path d="M102.533 10.544C102.533 13.0978 101.256 14.9987 99.5467 15.953C99.1068 16.2002 98.937 16.7527 99.1608 17.2048L102.228 23.4715C102.464 23.9467 102.267 24.5224 101.796 24.7542C101.665 24.8199 101.518 24.8547 101.368 24.8547H99.6624C99.2881 24.8547 98.9486 24.6383 98.7904 24.3022L95.5994 17.4559C95.4412 17.1198 95.1016 16.9034 94.7312 16.9034H92.0302C91.4977 16.9034 91.0694 17.3323 91.0694 17.8655V23.8926C91.0694 24.4219 90.645 24.8508 90.1164 24.8547C90.1164 24.8547 90.1125 24.8547 90.1087 24.8547H88.6424C88.1138 24.8547 87.6855 24.4297 87.6816 23.9004C87.6816 23.9004 87.6816 23.8965 87.6816 23.8926V5.14269C87.6816 4.60952 88.1099 4.18066 88.6424 4.18066H95.5878C99.9171 4.18066 102.533 6.69585 102.533 10.544ZM94.9974 14.1835C97.5248 14.1835 98.991 12.9858 98.991 10.6676C98.991 8.34946 97.4785 7.00108 95.09 7.00108H92.0225C91.49 7.00108 91.0617 7.42993 91.0617 7.96311V13.2214C91.0617 13.7507 91.4939 14.1796 92.0225 14.1835H94.9974Z" fill="#181823"/>
<path d="M115.907 13.6502L122.385 23.3864C122.679 23.8268 122.559 24.4257 122.119 24.7193C121.961 24.8236 121.776 24.8816 121.587 24.8816H119.696C119.372 24.8816 119.071 24.7193 118.893 24.4489L113.657 16.4281C113.364 15.9838 112.766 15.8601 112.322 16.1538C112.253 16.2001 112.191 16.2503 112.137 16.3122L110.891 17.6644C110.729 17.8421 110.644 18.0701 110.644 18.3096V23.9002C110.644 24.4334 110.216 24.8623 109.683 24.8623H108.19C107.657 24.8623 107.229 24.4334 107.229 23.9002V5.14257C107.229 4.61326 107.661 4.1844 108.19 4.18054H109.706C110.235 4.18054 110.663 4.61326 110.667 5.14257V13.7738H110.817L118.882 4.50121C119.063 4.28872 119.329 4.16895 119.607 4.16895H120.95C121.482 4.16895 121.911 4.5978 121.915 5.12711C121.915 5.35893 121.834 5.58301 121.683 5.75687L115.976 12.4795C115.691 12.8079 115.664 13.2908 115.907 13.6502Z" fill="#181823"/>
<path d="M126.56 23.9004V5.14269C126.56 4.61338 126.992 4.18453 127.521 4.18066H138.325C138.857 4.18066 139.286 4.60952 139.286 5.14269V6.14336C139.286 6.67267 138.861 7.10153 138.333 7.10539C138.333 7.10539 138.329 7.10539 138.325 7.10539H130.955C130.427 7.10539 129.998 7.53811 129.994 8.06742V12.4758C129.994 13.0089 130.423 13.4378 130.955 13.4378H137.538C138.07 13.4378 138.499 13.8666 138.499 14.3998C138.499 14.3998 138.499 14.3998 138.499 14.4037V15.358C138.499 15.8912 138.07 16.32 137.538 16.32H130.955C130.423 16.32 129.994 16.7489 129.994 17.282V23.9004C129.994 24.4297 129.57 24.8585 129.041 24.8624C129.041 24.8624 129.037 24.8624 129.034 24.8624H127.521C126.989 24.8624 126.56 24.4335 126.56 23.9004Z" fill="#181823"/>
<path d="M154.832 24.8624H144.225C143.692 24.8624 143.264 24.4335 143.264 23.9004V5.14269C143.264 4.61338 143.696 4.18453 144.225 4.18066H145.737C146.27 4.18066 146.698 4.60952 146.702 5.14269V20.9177C146.702 21.4508 147.13 21.8797 147.663 21.8797H154.832C155.36 21.8797 155.789 22.3047 155.793 22.834C155.793 22.834 155.793 22.8379 155.793 22.8417V23.9004C155.793 24.4297 155.368 24.8585 154.84 24.8624C154.84 24.8624 154.836 24.8624 154.832 24.8624Z" fill="#181823"/>
<path d="M166.508 25.2713C161.21 25.2713 157.911 21.7941 157.911 15.9408V13.1204C157.911 7.24 161.21 3.77051 166.508 3.77051C171.806 3.77051 175.085 7.24773 175.085 13.1204V15.9408C175.085 21.7864 171.802 25.2713 166.508 25.2713ZM166.508 6.72614C163.556 6.72614 161.391 8.83179 161.391 13.1049V15.9717C161.391 20.2564 163.556 22.362 166.508 22.362C169.46 22.362 171.605 20.2564 171.605 15.9717V13.1049C171.605 8.81634 169.429 6.71069 166.508 6.71069V6.72614Z" fill="#181823"/>
<path d="M180.966 19.4262C181.363 19.4301 181.722 19.6774 181.865 20.0521C182.447 21.4932 184.037 22.4398 186.283 22.4398C188.984 22.4398 190.566 21.1687 190.566 19.2292C190.566 17.6838 189.52 16.8183 187.282 16.2735L183.891 15.4236C180.746 14.6508 178.84 12.7886 178.84 9.84842C178.84 6.19734 181.927 3.72852 186.298 3.72852C190.099 3.72852 192.669 5.55599 193.467 8.09049C193.63 8.60049 193.348 9.14139 192.842 9.30366C192.75 9.33456 192.653 9.35002 192.553 9.35002H191.118C190.72 9.35388 190.361 9.1182 190.207 8.75503C189.667 7.42596 188.278 6.54506 186.267 6.54506C183.833 6.54506 182.289 7.82004 182.289 9.63592C182.289 10.9843 183.3 11.8923 185.148 12.3404L188.525 13.175C191.997 14.0211 194 15.6901 194 18.9162C194 22.718 191.033 25.2641 186.024 25.2641C181.811 25.2641 179.245 23.313 178.512 20.6085C178.381 20.0985 178.689 19.5769 179.199 19.4494C179.276 19.4301 179.361 19.4185 179.442 19.4185L180.966 19.4262Z" fill="#181823"/>
</g>
<defs>
<clipPath id="clip0_224_3348">
<rect width="194" height="29" fill="white"/>
</clipPath>
</defs>
</svg>
