<svg width="17" height="18" viewBox="0 0 17 18" fill="none" xmlns="http://www.w3.org/2000/svg">
<g clip-path="url(#clip0_186_1034)">
<path d="M15.6984 0.523315H1.25164C0.559594 0.523315 0 1.06966 0 1.74515V16.2515C0 16.927 0.559594 17.4767 1.25164 17.4767H15.6984C16.3905 17.4767 16.9534 16.927 16.9534 16.2549V1.74515C16.9534 1.06966 16.3905 0.523315 15.6984 0.523315ZM5.02972 14.9701H2.51321V6.87752H5.02972V14.9701ZM3.77146 5.77489C2.96353 5.77489 2.31122 5.12258 2.31122 4.31796C2.31122 3.51334 2.96353 2.86103 3.77146 2.86103C4.57609 2.86103 5.2284 3.51334 5.2284 4.31796C5.2284 5.11927 4.57609 5.77489 3.77146 5.77489ZM14.4468 14.9701H11.9336V11.0364C11.9336 10.0993 11.917 8.89073 10.6257 8.89073C9.31774 8.89073 9.11906 9.9139 9.11906 10.9702V14.9701H6.60917V6.87752H9.01973V7.98346H9.05284C9.38727 7.34771 10.2085 6.67554 11.4303 6.67554C13.9766 6.67554 14.4468 8.35101 14.4468 10.5298V14.9701V14.9701Z" fill="white"/>
</g>
<defs>
<clipPath id="clip0_186_1034">
<rect width="16.9534" height="16.9534" fill="white" transform="translate(0 0.523315)"/>
</clipPath>
</defs>
</svg>
