<svg width="32" height="32" viewBox="0 0 32 32" fill="none" xmlns="http://www.w3.org/2000/svg">
<g clip-path="url(#clip0_1218_411)">
<path d="M31.9994 16.0588C31.9994 7.18983 24.836 0 15.9997 0C7.16338 0 0 7.18983 0 16.0588C0 23.5897 5.16598 29.9091 12.1348 31.6448V20.9663H8.83566V16.0588H12.1348V13.9442C12.1348 8.47839 14.5994 5.94496 19.9458 5.94496C20.9596 5.94496 22.7087 6.14473 23.4242 6.34386V10.7921C23.0466 10.7523 22.3906 10.7324 21.5759 10.7324C18.9526 10.7324 17.9388 11.73 17.9388 14.3231V16.0588H23.165L22.2671 20.9663H17.9388V32C25.8612 31.0397 32 24.2693 32 16.0588H31.9994Z" fill="#0866FF"/>
<path d="M21.8896 20.9223L22.7513 16.0471H17.736V14.3229C17.736 11.7469 18.7088 10.7559 21.2263 10.7559C22.0081 10.7559 22.6376 10.7757 23 10.8152V6.39627C22.3134 6.19782 20.6348 6 19.662 6C14.5312 6 12.166 8.51673 12.166 13.9464V16.0471H9V20.9223H12.166V31.5303C13.3538 31.8366 14.5963 32 15.875 32C16.5045 32 17.1255 31.9598 17.7353 31.8832V20.9223H21.889H21.8896Z" fill="white"/>
</g>
<defs>
<clipPath id="clip0_1218_411">
<rect width="32" height="32" fill="white"/>
</clipPath>
</defs>
</svg>
