<svg width="84" height="78" viewBox="0 0 84 78" fill="none" xmlns="http://www.w3.org/2000/svg">
<g clip-path="url(#clip0_190_5101)">
<path d="M68.7061 30.0327C76.9612 30.0327 83.6583 23.3039 83.6583 15.0095C83.6583 6.71514 76.9612 0 68.7061 0V30.0327Z" fill="black"/>
<path d="M68.7061 30.0327C60.451 30.0327 53.754 23.3039 53.754 15.0095C53.754 6.71514 60.451 0 68.7061 0V30.0327Z" fill="black"/>
<path d="M68.7061 45.3444V30.2113C60.3417 30.2113 53.549 36.9676 53.4123 45.3444H68.7061Z" fill="black"/>
<path d="M84 45.3444C83.8633 36.9676 77.0706 30.2113 68.7061 30.2113V45.3444H84Z" fill="black"/>
<path d="M60.4784 48.1595V45.5504L66.8884 41.8701L60.4784 38.1898V35.5807C60.4784 33.2461 58.5923 31.3511 56.2688 31.3511H42.5057C40.1822 31.3511 38.2961 33.2461 38.2961 35.5807V48.1733C38.2961 50.5078 40.1822 52.4028 42.5057 52.4028H56.2688C58.5923 52.4028 60.4784 50.5078 60.4784 48.1733V48.1595Z" fill="black"/>
<path d="M15.2939 51.881C23.549 51.881 30.246 45.1521 30.246 36.8577C30.246 28.5633 23.549 21.8345 15.2939 21.8345V51.8672V51.881Z" fill="#9747FF"/>
<path d="M15.2938 51.8809C7.03871 51.8809 0.341675 45.1658 0.341675 36.8714C0.341675 28.577 7.03871 21.8481 15.2938 21.8481V51.8809Z" fill="#9747FF"/>
<path d="M15.2938 67.1925V52.0594C6.92938 52.0594 0.136674 58.8158 0 67.1925H15.2938Z" fill="#9747FF"/>
<path d="M30.5877 67.1925C30.451 58.8158 23.6583 52.0594 15.2939 52.0594V67.1925H30.5877Z" fill="#9747FF"/>
<path d="M50.7745 44.1634H47.754L47.2893 35.4708H51.2392L50.7745 44.1634ZM47.3303 47.3768C47.3303 46.8138 47.4943 46.3881 47.8223 46.0722C48.1504 45.7564 48.6287 45.6053 49.2574 45.6053C49.8861 45.6053 50.3508 45.7564 50.6652 46.0722C50.9795 46.3881 51.1435 46.8138 51.1435 47.3768C51.1435 47.9398 50.9795 48.3518 50.6515 48.6677C50.3235 48.9835 49.8588 49.1346 49.2574 49.1346C48.6561 49.1346 48.1777 48.9835 47.836 48.6677C47.4943 48.3518 47.3303 47.9261 47.3303 47.3768Z" fill="white"/>
<path d="M24.2323 53.9545V57.6898L15.0752 62.9493L24.2323 68.2088V71.944C24.2323 75.281 26.9248 78 30.2597 78H50.8292C54.1503 78 56.8565 75.2947 56.8565 71.944V53.9545C56.8565 50.6176 54.164 47.8986 50.8292 47.8986H30.2597C26.9385 47.8986 24.2323 50.6038 24.2323 53.9545Z" fill="black"/>
<path d="M38.2961 65.476V64.4736C38.2961 63.7183 38.4465 63.0728 38.7608 62.551C39.0752 62.0292 39.6219 61.5211 40.4009 61.0267C41.0296 60.6285 41.4806 60.2714 41.754 59.9556C42.0273 59.6398 42.164 59.269 42.164 58.857C42.164 58.5274 42.0137 58.2802 41.7267 58.088C41.4396 57.8957 41.0569 57.7996 40.5786 57.7996C39.4169 57.7996 38.0501 58.2116 36.492 59.0493L34.8793 55.8908C36.8064 54.7922 38.8018 54.2429 40.8929 54.2429C42.615 54.2429 43.9681 54.6274 44.9385 55.3827C45.9226 56.138 46.4146 57.1817 46.4146 58.4862C46.4146 59.42 46.1959 60.2302 45.7585 60.9169C45.3212 61.6035 44.6241 62.2489 43.6674 62.8669C42.861 63.3887 42.3554 63.7732 42.1503 64.0204C41.9453 64.2676 41.8497 64.5559 41.8497 64.8855V65.476H38.2961ZM37.8041 69.5408C37.8041 68.8267 38.0091 68.2774 38.4191 67.8929C38.8292 67.5084 39.4442 67.3162 40.2369 67.3162C41.0296 67.3162 41.6036 67.5084 42.0137 67.9067C42.4237 68.2912 42.6287 68.8405 42.6287 69.5545C42.6287 70.2686 42.41 70.8042 41.9863 71.1887C41.5626 71.5732 40.9749 71.7655 40.2369 71.7655C39.4989 71.7655 38.8702 71.5732 38.4465 71.1887C38.0091 70.8042 37.8041 70.2549 37.8041 69.5408Z" fill="#9747FF"/>
</g>
<defs>
<clipPath id="clip0_190_5101">
<rect width="84" height="78" fill="white"/>
</clipPath>
</defs>
</svg>
