<svg width="17" height="18" viewBox="0 0 17 18" fill="none" xmlns="http://www.w3.org/2000/svg">
<g clip-path="url(#clip0_224_4088)">
<path d="M15.6984 0.523438H1.25164C0.559594 0.523438 0 1.06979 0 1.74527V16.2517C0 16.9272 0.559594 17.4768 1.25164 17.4768H15.6984C16.3905 17.4768 16.9534 16.9272 16.9534 16.255V1.74527C16.9534 1.06979 16.3905 0.523438 15.6984 0.523438ZM5.02972 14.9702H2.51321V6.87764H5.02972V14.9702ZM3.77146 5.77501C2.96353 5.77501 2.31122 5.1227 2.31122 4.31808C2.31122 3.51346 2.96353 2.86115 3.77146 2.86115C4.57609 2.86115 5.2284 3.51346 5.2284 4.31808C5.2284 5.11939 4.57609 5.77501 3.77146 5.77501ZM14.4468 14.9702H11.9336V11.0365C11.9336 10.0994 11.917 8.89086 10.6257 8.89086C9.31774 8.89086 9.11906 9.91402 9.11906 10.9703V14.9702H6.60917V6.87764H9.01973V7.98359H9.05284C9.38727 7.34784 10.2085 6.67566 11.4303 6.67566C13.9766 6.67566 14.4468 8.35113 14.4468 10.5299V14.9702V14.9702Z" fill="black"/>
</g>
<defs>
<clipPath id="clip0_224_4088">
<rect width="16.9534" height="16.9534" fill="white" transform="translate(0 0.523438)"/>
</clipPath>
</defs>
</svg>
