<svg width="18" height="18" viewBox="0 0 18 18" fill="none" xmlns="http://www.w3.org/2000/svg">
<g clip-path="url(#clip0_186_1037)">
<path fill-rule="evenodd" clip-rule="evenodd" d="M17.1904 9.00001C17.1904 13.6816 13.3953 17.4767 8.71375 17.4767C4.0322 17.4767 0.237061 13.6816 0.237061 9.00001C0.237061 4.31846 4.0322 0.523315 8.71375 0.523315C13.3953 0.523315 17.1904 4.31846 17.1904 9.00001ZM9.01752 6.78118C8.19303 7.12411 6.54523 7.83389 4.0741 8.91052C3.67283 9.07009 3.46262 9.2262 3.44349 9.37884C3.41115 9.63681 3.7342 9.73839 4.17411 9.87672C4.23395 9.89554 4.29595 9.91503 4.35951 9.9357C4.79232 10.0764 5.37452 10.241 5.67718 10.2475C5.95172 10.2534 6.25814 10.1403 6.59644 9.90796C8.90529 8.34942 10.0971 7.56166 10.172 7.54468C10.2247 7.53269 10.2979 7.51763 10.3475 7.56168C10.397 7.60574 10.3922 7.68917 10.3869 7.71155C10.3549 7.84798 9.08681 9.02691 8.43057 9.63701C8.22599 9.82721 8.08088 9.96212 8.05121 9.99293C7.98476 10.062 7.91703 10.1272 7.85194 10.19C7.44985 10.5776 7.14833 10.8683 7.86863 11.343C8.21479 11.5711 8.49178 11.7597 8.76811 11.9479C9.0699 12.1534 9.3709 12.3584 9.76035 12.6137C9.85957 12.6787 9.95433 12.7463 10.0466 12.8121C10.3978 13.0624 10.7134 13.2874 11.1032 13.2515C11.3297 13.2307 11.5637 13.0177 11.6825 12.3825C11.9633 10.8812 12.5153 7.62852 12.6428 6.28815C12.654 6.17072 12.64 6.02043 12.6287 5.95445C12.6174 5.88848 12.5938 5.79448 12.508 5.72489C12.4065 5.64248 12.2497 5.62511 12.1796 5.62634C11.8607 5.63196 11.3716 5.80204 9.01752 6.78118Z" fill="white"/>
</g>
<defs>
<clipPath id="clip0_186_1037">
<rect width="16.9534" height="16.9534" fill="white" transform="translate(0.237061 0.523315)"/>
</clipPath>
</defs>
</svg>
